<svg width="27" height="64" viewBox="0 0 27 64" fill="none" xmlns="http://www.w3.org/2000/svg">
<path d="M12.5057 62.3687H11.5057V63.3687H12.5057V62.3687ZM12.5057 12.0206H13.5057V11.0206H12.5057V12.0206ZM1.02574 12.0206H0.0257423V13.0206H1.02574V12.0206ZM1.02574 1.36065L1.02235 0.360657L0.0257423 0.364035V1.36065H1.02574ZM25.2157 1.27865H26.2157V0.275251L25.2124 0.278652L25.2157 1.27865ZM25.2157 62.3687V63.3687H26.2157V62.3687H25.2157ZM13.5057 62.3687V12.0206H11.5057V62.3687H13.5057ZM12.5057 11.0206H1.02574V13.0206H12.5057V11.0206ZM2.02574 12.0206V1.36065H0.0257423V12.0206H2.02574ZM1.02913 2.36065L25.2191 2.27864L25.2124 0.278652L1.02235 0.360657L1.02913 2.36065ZM24.2157 1.27865V62.3687H26.2157V1.27865H24.2157ZM25.2157 61.3687H12.5057V63.3687H25.2157V61.3687Z" fill="#939393"/>
</svg>
