<svg width="45" height="66" viewBox="0 0 45 66" fill="none" xmlns="http://www.w3.org/2000/svg">
<path d="M1.7072 64.0681L0.70723 64.0764L0.715494 65.0681H1.7072V64.0681ZM1.6252 54.2281L0.907717 53.5315L0.62181 53.826L0.62523 54.2365L1.6252 54.2281ZM18.0252 37.3361L18.7427 38.0327L18.744 38.0313L18.0252 37.3361ZM25.3232 29.4641L24.5654 28.8116L24.5639 28.8133L25.3232 29.4641ZM28.7672 24.5441L27.8728 24.0969L27.8652 24.1121L27.8581 24.1275L28.7672 24.5441ZM27.7012 15.4421L27.0087 16.1635L27.0163 16.1709L27.0241 16.178L27.7012 15.4421ZM15.8112 15.5241L16.3994 16.3329L16.4036 16.3298L15.8112 15.5241ZM11.8752 21.1001L11.3775 21.9675L12.4301 22.5714L12.8217 21.4228L11.8752 21.1001ZM1.8712 15.3601L0.926359 15.0326L0.655036 15.8152L1.37353 16.2275L1.8712 15.3601ZM9.6612 5.60211L9.12353 4.75895L9.6612 5.60211ZM33.1132 4.12611L32.6728 5.02393L32.6794 5.02712L33.1132 4.12611ZM40.0012 10.1121L40.8441 9.57408L40.0012 10.1121ZM39.7552 28.7261L40.6127 29.2406L40.6167 29.2338L39.7552 28.7261ZM31.5552 38.8121L30.8429 38.1102L30.8381 38.1152L31.5552 38.8121ZM17.3692 53.4081L16.6521 52.7112L15.0028 54.4081H17.3692V53.4081ZM43.1992 53.4081H44.1992V52.4081H43.1992V53.4081ZM43.1992 64.0681V65.0681H44.1992V64.0681H43.1992ZM2.70716 64.0598L2.62516 54.2198L0.62523 54.2365L0.70723 64.0764L2.70716 64.0598ZM2.34267 54.9247L18.7427 38.0327L17.3077 36.6395L0.907717 53.5315L2.34267 54.9247ZM18.744 38.0313C21.9738 34.6921 24.4228 32.0511 26.0825 30.1149L24.5639 28.8133C22.9436 30.7038 20.5273 33.3108 17.3064 36.6409L18.744 38.0313ZM26.081 30.1166C27.7963 28.1246 29.0164 26.4005 29.6763 24.9608L27.8581 24.1275C27.3153 25.3117 26.2394 26.8676 24.5654 28.8116L26.081 30.1166ZM29.6616 24.9913C30.3755 23.5636 30.7512 22.1266 30.7512 20.6901H28.7512C28.7512 21.7683 28.4709 22.9007 27.8728 24.0969L29.6616 24.9913ZM30.7512 20.6901C30.7512 18.2318 29.9927 16.1915 28.3783 14.7062L27.0241 16.178C28.143 17.2074 28.7512 18.6658 28.7512 20.6901H30.7512ZM28.3937 14.7207C26.7985 13.1893 24.6686 12.4741 22.1252 12.4741V14.4741C24.2831 14.4741 25.8706 15.071 27.0087 16.1635L28.3937 14.7207ZM22.1252 12.4741C19.5657 12.4741 17.2526 13.223 15.2188 14.7185L16.4036 16.3298C18.0871 15.0919 19.9833 14.4741 22.1252 14.4741V12.4741ZM15.223 14.7154C13.2298 16.165 11.8056 18.2052 10.9287 20.7774L12.8217 21.4228C13.5848 19.1844 14.7846 17.5072 16.3994 16.3329L15.223 14.7154ZM12.3729 20.2327L2.36886 14.4927L1.37353 16.2275L11.3775 21.9675L12.3729 20.2327ZM2.81603 15.6877C4.16115 11.8075 6.61043 8.73355 10.1989 6.44527L9.12353 4.75895C5.16796 7.28134 2.4239 10.7127 0.926359 15.0326L2.81603 15.6877ZM10.1989 6.44527C13.7891 4.15583 18.025 2.99411 22.9452 2.99411V0.994112C17.6974 0.994112 13.0773 2.23773 9.12353 4.75895L10.1989 6.44527ZM22.9452 2.99411C26.7044 2.99411 29.9375 3.68209 32.6728 5.0239L33.5536 3.22832C30.4942 1.72746 26.9486 0.994112 22.9452 0.994112V2.99411ZM32.6794 5.02712C35.477 6.37411 37.6258 8.24924 39.1583 10.6501L40.8441 9.57408C39.0966 6.83632 36.6534 4.72079 33.547 3.22511L32.6794 5.02712ZM39.1583 10.6501C40.6828 13.0386 41.4612 15.8533 41.4612 19.1321H43.4612C43.4612 15.5229 42.5996 12.3243 40.8441 9.57408L39.1583 10.6501ZM41.4612 19.1321C41.4612 22.2764 40.6132 25.3004 38.8937 28.2184L40.6167 29.2338C42.5052 26.0291 43.4612 22.6571 43.4612 19.1321H41.4612ZM38.8977 28.2116C37.1491 31.126 34.4741 34.4248 30.8429 38.1103L32.2675 39.514C35.9616 35.7647 38.7533 32.3396 40.6127 29.2406L38.8977 28.2116ZM30.8381 38.1152L16.6521 52.7112L18.0863 54.1051L32.2723 39.5091L30.8381 38.1152ZM17.3692 54.4081H43.1992V52.4081H17.3692V54.4081ZM42.1992 53.4081V64.0681H44.1992V53.4081H42.1992ZM43.1992 63.0681H1.7072V65.0681H43.1992V63.0681Z" fill="#939393"/>
</svg>
