<svg width="47" height="65" viewBox="0 0 47 65" fill="none" xmlns="http://www.w3.org/2000/svg">
<path d="M9.73548 60.1436L9.19221 60.9832L9.19781 60.9867L9.73548 60.1436ZM1.86348 50.3856L1.36581 49.5182L0.629884 49.9405L0.926635 50.7353L1.86348 50.3856ZM11.8675 44.6456L12.8067 44.3022L12.3992 43.1876L11.3698 43.7782L11.8675 44.6456ZM29.8255 49.8116L30.5094 50.5411L30.5102 50.5404L29.8255 49.8116ZM29.9075 36.4456L29.2235 37.1751L29.2297 37.1809L29.236 37.1866L29.9075 36.4456ZM15.8035 35.5436L14.902 35.9763L15.3417 36.8925L16.2507 36.438L15.8035 35.5436ZM12.8515 29.3936L12.1167 28.7153L11.6561 29.2142L11.95 29.8263L12.8515 29.3936ZM28.5955 12.3376L29.3303 13.0159L30.8795 11.3376H28.5955V12.3376ZM4.65148 12.3376H3.65148V13.3376H4.65148V12.3376ZM4.65148 1.67757V0.677572H3.65148V1.67757H4.65148ZM42.7815 1.67757H43.7815V0.677572H42.7815V1.67757ZM42.7815 11.5176L43.5284 12.1825L43.7815 11.8982V11.5176H42.7815ZM30.8095 24.9656L30.0626 24.3006L28.8662 25.6445L30.6392 25.951L30.8095 24.9656ZM41.3055 30.7876L40.5339 31.4238L40.5406 31.4317L41.3055 30.7876ZM42.2895 53.4196L41.4358 52.8987L42.2895 53.4196ZM34.2535 61.0456L34.7234 61.9284L34.7343 61.9224L34.2535 61.0456ZM22.6915 62.7516C17.9993 62.7516 13.8705 61.5944 10.2731 59.3004L9.19781 60.9867C13.1445 63.5034 17.653 64.7516 22.6915 64.7516V62.7516ZM10.2787 59.304C6.73953 57.0139 4.25488 53.932 2.80032 50.0358L0.926635 50.7353C2.53341 55.0392 5.29675 58.4625 9.19223 60.9831L10.2787 59.304ZM2.36115 51.2529L12.3651 45.5129L11.3698 43.7782L1.36581 49.5182L2.36115 51.2529ZM10.9283 44.9889C11.9115 47.6784 13.3865 49.7699 15.3915 51.1826C17.3974 52.5958 19.8515 53.2716 22.6915 53.2716V51.2716C20.1742 51.2716 18.1456 50.6764 16.5434 49.5476C14.9405 48.4182 13.6821 46.6967 12.8067 44.3022L10.9283 44.9889ZM22.6915 53.2716C25.8848 53.2716 28.5308 52.3961 30.5094 50.5411L29.1415 49.082C27.6215 50.5071 25.5115 51.2716 22.6915 51.2716V53.2716ZM30.5102 50.5404C32.5459 48.628 33.5315 46.0794 33.5315 43.0056H31.5315C31.5315 45.6171 30.713 47.6058 29.1408 49.0827L30.5102 50.5404ZM33.5315 43.0056C33.5315 39.9911 32.5756 37.514 30.579 35.7046L29.236 37.1866C30.738 38.5478 31.5315 40.444 31.5315 43.0056H33.5315ZM30.5914 35.716C28.6096 33.8581 25.9339 32.9856 22.6915 32.9856V34.9856C25.5718 34.9856 27.7067 35.7531 29.2235 37.1751L30.5914 35.716ZM22.6915 32.9856C20.0347 32.9856 17.5837 33.5354 15.3563 34.6492L16.2507 36.438C18.1779 35.4744 20.319 34.9856 22.6915 34.9856V32.9856ZM16.705 35.1108L13.753 28.9608L11.95 29.8263L14.902 35.9763L16.705 35.1108ZM13.5863 30.0719L29.3303 13.0159L27.8607 11.6593L12.1167 28.7153L13.5863 30.0719ZM28.5955 11.3376H4.65148V13.3376H28.5955V11.3376ZM5.65148 12.3376V1.67757H3.65148V12.3376H5.65148ZM4.65148 2.67757H42.7815V0.677572H4.65148V2.67757ZM41.7815 1.67757V11.5176H43.7815V1.67757H41.7815ZM42.0346 10.8526L30.0626 24.3006L31.5564 25.6305L43.5284 12.1825L42.0346 10.8526ZM30.6392 25.951C34.8599 26.6805 38.1342 28.5134 40.5339 31.4238L42.077 30.1514C39.3381 26.8297 35.6151 24.7813 30.9798 23.9802L30.6392 25.951ZM40.5406 31.4317C42.9897 34.3401 44.2415 38.0096 44.2415 42.5136H46.2415C46.2415 37.6149 44.8692 33.4671 42.0704 30.1434L40.5406 31.4317ZM44.2415 42.5136C44.2415 46.3886 43.3013 49.8414 41.4358 52.8987L43.1431 53.9404C45.2136 50.5471 46.2415 46.7292 46.2415 42.5136H44.2415ZM41.4358 52.8987C39.561 55.9713 37.0124 58.3921 33.7726 60.1688L34.7343 61.9224C38.2732 59.9817 41.0819 57.3185 43.1431 53.9404L41.4358 52.8987ZM33.7836 60.1628C30.5562 61.8807 26.867 62.7516 22.6915 62.7516V64.7516C27.1533 64.7516 31.1721 63.8185 34.7233 61.9283L33.7836 60.1628Z" fill="#939393"/>
</svg>
