<svg width="45" height="45" viewBox="0 0 45 45" fill="none" xmlns="http://www.w3.org/2000/svg">
<g clip-path="url(#clip0)">
<path d="M37.4931 16.5412C35.4133 8.25598 27.0109 3.22549 18.7257 5.30529C12.251 6.93064 7.54961 12.5266 7.06521 19.1846C2.46789 19.9427 -0.64442 24.2842 0.11373 28.8815C0.787689 32.9686 4.32912 35.9617 8.4713 35.9453H15.5018V33.1331H8.4713C5.36506 33.1331 2.84692 30.6149 2.84692 27.5087C2.84692 24.4024 5.36506 21.8843 8.4713 21.8843C9.24791 21.8843 9.8774 21.2548 9.8774 20.4782C9.87037 13.4891 15.5305 7.81763 22.5196 7.81068C28.5697 7.80462 33.7778 12.0818 34.9481 18.0175C35.0637 18.6102 35.5446 19.063 36.1433 19.1424C39.9874 19.6898 42.6597 23.2498 42.1124 27.0938C41.6209 30.5456 38.6737 33.1157 35.1871 33.1331H29.5627V35.9453H35.1871C40.6231 35.9288 45.0164 31.5088 44.9999 26.0728C44.9862 21.5478 41.8889 17.615 37.4931 16.5412Z" fill="white"/>
<path d="M21.5341 22.2922L15.9097 27.9166L17.8923 29.8992L21.1263 26.6792V40.1637H23.9385V26.6792L27.1584 29.8992L29.141 27.9166L23.5167 22.2922C22.9682 21.747 22.0825 21.747 21.5341 22.2922Z" fill="white"/>
</g>
<defs>
<clipPath id="clip0">
<rect width="45" height="45" fill="white"/>
</clipPath>
</defs>
</svg>
