<svg width="41" height="43" viewBox="0 0 41 43" fill="none" xmlns="http://www.w3.org/2000/svg">
<g clip-path="url(#clip0)">
<path d="M26.3306 4.70532C23.2401 4.70532 20.7258 7.34226 20.7258 10.5835C20.7258 13.8247 23.2401 16.4616 26.3306 16.4616C29.421 16.4616 31.9353 13.8247 31.9353 10.5835C31.9353 7.34226 29.421 4.70532 26.3306 4.70532ZM26.3306 14.7821C24.1231 14.7821 22.3272 12.8986 22.3272 10.5835C22.3272 8.26832 24.1231 6.38479 26.3306 6.38479C28.538 6.38479 30.334 8.26832 30.334 10.5835C30.334 12.8986 28.538 14.7821 26.3306 14.7821Z" fill="white"/>
<path d="M40.268 21.3261L34.124 14.8824C34.771 13.5976 35.138 12.1348 35.138 10.5835C35.138 5.49019 31.187 1.34644 26.3306 1.34644C21.4741 1.34644 17.5231 5.49019 17.5231 10.5835C17.5231 12.8146 18.2813 14.8635 19.5415 16.4617H3.20802C2.96557 16.4617 2.73618 16.5769 2.58421 16.7749C1.27374 18.4827 1.27374 21.1584 2.58421 22.8663C2.73618 23.0643 2.96557 23.1795 3.20802 23.1795H5.07215C4.71593 24.2537 4.71593 25.4642 5.07215 26.5384H1.60666C1.36422 26.5384 1.13482 26.6536 0.982852 26.8516C-0.327617 28.5595 -0.327617 31.2351 0.982852 32.943C1.13482 33.141 1.36422 33.2562 1.60666 33.2562H2.67012C2.1504 34.8234 2.38804 36.6823 3.38497 37.9814C3.53694 38.1794 3.76633 38.2946 4.00877 38.2946H8.81284V40.8138C8.81284 41.1535 9.00797 41.4597 9.3071 41.5897C9.60631 41.7195 9.95069 41.6478 10.1797 41.4076L12.0156 39.4822L13.8514 41.4076C14.0047 41.5682 14.2094 41.6536 14.4178 41.6536C14.521 41.6536 14.625 41.6327 14.724 41.5897C15.0232 41.4597 15.2183 41.1535 15.2183 40.8138V38.2946H27.2284C27.6706 38.2946 28.0291 37.9186 28.0291 37.4549C28.0291 36.9912 27.6706 36.6152 27.2284 36.6152H26.8456C26.2916 35.6311 26.2916 34.2403 26.8456 33.2562H27.2284C27.6706 33.2562 28.0291 32.8802 28.0291 32.4165C28.0291 31.9528 27.6706 31.5767 27.2284 31.5767H24.4435C23.8896 30.5927 23.8896 29.2019 24.4435 28.2178H29.6305C30.0727 28.2178 30.4311 27.8418 30.4311 27.3781C30.4311 26.9144 30.0727 26.5383 29.6305 26.5383H29.2476C28.6937 25.5542 28.6937 24.1635 29.2476 23.1794H29.6305C30.0727 23.1794 30.4311 22.8034 30.4311 22.3397C30.4311 21.876 30.0727 21.4999 29.6305 21.4999H26.046C25.7702 21.0098 25.6241 20.4066 25.6284 19.7911C25.8602 19.8103 26.0943 19.8204 26.3306 19.8204C27.8938 19.8204 29.3629 19.3906 30.6368 18.6385L36.7338 25.0328C37.221 25.5437 37.861 25.7992 38.5009 25.7992C39.1409 25.7992 39.7809 25.5437 40.2681 25.0328C40.7402 24.5377 41.0002 23.8796 41.0002 23.1794C41.0002 22.4792 40.74 21.8211 40.268 21.3261ZM13.6168 38.7865L12.5816 37.7008C12.269 37.373 11.762 37.373 11.4492 37.7008L10.414 38.7865V35.7755H13.6167V38.7865H13.6168ZM25.0891 36.6152H15.2182V35.7755H16.0189C16.4611 35.7755 16.8195 35.3995 16.8195 34.9358C16.8195 34.4721 16.4611 34.096 16.0189 34.096H8.01208C7.56987 34.096 7.21141 34.4721 7.21141 34.9358C7.21141 35.3995 7.56987 35.7755 8.01208 35.7755H8.81276V36.6152H4.42625C3.8721 35.6307 3.87426 34.2404 4.42897 33.2563H25.0891C24.7329 34.3304 24.7329 35.541 25.0891 36.6152ZM22.6871 31.5768H2.02421C1.4703 30.5927 1.4703 29.202 2.02421 28.2179H22.6871C22.3308 29.292 22.3308 30.5026 22.6871 31.5768ZM27.4911 26.5384H6.82852C6.27461 25.5543 6.27461 24.1636 6.82852 23.1795H27.4911C27.1349 24.2536 27.1349 25.4642 27.4911 26.5384ZM24.2897 21.5H3.62557C3.07166 20.5159 3.07166 19.1251 3.62557 18.1411H21.2725C22.1006 18.7524 23.033 19.2178 24.036 19.5019C23.9955 20.1898 24.0827 20.8729 24.2897 21.5ZM19.1245 10.5834C19.1245 6.41617 22.3571 3.02582 26.3306 3.02582C30.304 3.02582 33.5367 6.41617 33.5367 10.5834C33.5367 14.7507 30.304 18.1411 26.3306 18.1411C22.3571 18.1411 19.1245 14.7507 19.1245 10.5834ZM39.1356 23.8453C38.7857 24.2125 38.2161 24.2125 37.866 23.8453L31.9757 17.6678C32.4357 17.264 32.8559 16.812 33.2292 16.3192L39.1356 22.5137C39.3052 22.6916 39.3986 22.9281 39.3986 23.1796C39.3986 23.4311 39.3052 23.6674 39.1356 23.8453Z" fill="white"/>
</g>
<defs>
<clipPath id="clip0">
<rect width="41" height="43" fill="white"/>
</clipPath>
</defs>
</svg>
