<svg width="125" height="28" viewBox="0 0 125 28" fill="none" xmlns="http://www.w3.org/2000/svg">
<path d="M52.856 20.4673V11.9273H50.21V10.0373H57.644V11.9273H55.026V20.4673H52.856ZM64.6377 10.0373H66.8077V16.5053C66.8077 17.28 66.6303 17.98 66.2757 18.6053C65.921 19.2306 65.4217 19.7253 64.7777 20.0893C64.143 20.4533 63.3963 20.6353 62.5377 20.6353C61.6883 20.6353 60.9417 20.4533 60.2977 20.0893C59.6537 19.7253 59.1543 19.2306 58.7997 18.6053C58.445 17.98 58.2677 17.28 58.2677 16.5053V10.0373H60.4377V16.5053C60.4377 17.1586 60.629 17.686 61.0117 18.0873C61.4037 18.4793 61.9123 18.6753 62.5377 18.6753C63.1723 18.6753 63.681 18.4793 64.0637 18.0873C64.4463 17.686 64.6377 17.1586 64.6377 16.5053V10.0373ZM70.0902 20.4673V11.9273H67.4442V10.0373H74.8782V11.9273H72.2602V20.4673H70.0902ZM80.258 20.6353C79.474 20.6353 78.746 20.5 78.074 20.2293C77.402 19.9586 76.814 19.5806 76.31 19.0953C75.8154 18.6006 75.428 18.0266 75.148 17.3733C74.868 16.72 74.728 16.0106 74.728 15.2453C74.728 14.48 74.8634 13.7706 75.134 13.1173C75.414 12.464 75.8014 11.8946 76.296 11.4093C76.8 10.924 77.388 10.546 78.06 10.2753C78.732 10.0046 79.4647 9.86928 80.258 9.86928C81.0514 9.86928 81.784 10.0046 82.456 10.2753C83.128 10.546 83.7114 10.924 84.206 11.4093C84.71 11.8946 85.0974 12.464 85.368 13.1173C85.648 13.7706 85.788 14.48 85.788 15.2453C85.788 16.0106 85.648 16.72 85.368 17.3733C85.088 18.0266 84.696 18.6006 84.192 19.0953C83.6974 19.5806 83.114 19.9586 82.442 20.2293C81.77 20.5 81.042 20.6353 80.258 20.6353ZM80.258 18.6753C80.8927 18.6753 81.462 18.5306 81.966 18.2413C82.4794 17.9426 82.8807 17.5366 83.17 17.0233C83.4687 16.51 83.618 15.9173 83.618 15.2453C83.618 14.5733 83.4687 13.9806 83.17 13.4673C82.8807 12.954 82.4794 12.5526 81.966 12.2633C81.462 11.974 80.8927 11.8293 80.258 11.8293C79.6234 11.8293 79.0494 11.974 78.536 12.2633C78.032 12.5526 77.6307 12.954 77.332 13.4673C77.0427 13.9806 76.898 14.5733 76.898 15.2453C76.898 15.9173 77.0427 16.51 77.332 17.0233C77.6307 17.5366 78.032 17.9426 78.536 18.2413C79.0494 18.5306 79.6234 18.6753 80.258 18.6753ZM86.703 20.4673V10.0373H90.987C91.7056 10.0373 92.3403 10.1633 92.891 10.4153C93.451 10.6673 93.8896 11.0406 94.207 11.5353C94.5243 12.03 94.683 12.6413 94.683 13.3693C94.683 14.0786 94.5196 14.6853 94.193 15.1893C93.8663 15.684 93.4276 16.0573 92.877 16.3093L95.257 20.4673H92.821L90.707 16.6873H88.873V20.4673H86.703ZM88.873 14.7973H91.001C91.4583 14.7973 91.8223 14.6666 92.093 14.4053C92.373 14.144 92.513 13.7986 92.513 13.3693C92.513 12.9306 92.373 12.5806 92.093 12.3193C91.8223 12.058 91.4583 11.9273 91.001 11.9273H88.873V14.7973ZM96.031 20.4673V10.0373H98.201V20.4673H96.031ZM98.6965 20.4673L102.252 10.0373H105.122L108.678 20.4673H106.382L105.682 18.3393H101.692L100.992 20.4673H98.6965ZM102.308 16.4493H105.066L103.694 12.2213L102.308 16.4493ZM109.164 20.4673V10.0373H111.334V18.5773H116.024V20.4673H109.164ZM120.648 20.6353C119.957 20.6353 119.313 20.514 118.716 20.2713C118.119 20.0286 117.605 19.688 117.176 19.2493C116.747 18.8106 116.434 18.2973 116.238 17.7093L118.058 16.8553C118.31 17.462 118.674 17.9286 119.15 18.2553C119.635 18.582 120.135 18.7453 120.648 18.7453C121.18 18.7453 121.595 18.638 121.894 18.4233C122.193 18.2086 122.342 17.9473 122.342 17.6393C122.342 17.3686 122.253 17.154 122.076 16.9953C121.899 16.8273 121.656 16.6966 121.348 16.6033L119.22 15.9313C118.333 15.6513 117.675 15.264 117.246 14.7693C116.817 14.2653 116.602 13.668 116.602 12.9773C116.602 12.352 116.756 11.8106 117.064 11.3533C117.381 10.8866 117.82 10.5226 118.38 10.2613C118.94 9.99995 119.598 9.86928 120.354 9.86928C121.026 9.86928 121.637 9.98595 122.188 10.2193C122.739 10.4433 123.21 10.756 123.602 11.1573C124.003 11.5493 124.297 12.002 124.484 12.5153L122.664 13.3693C122.487 12.8746 122.197 12.4826 121.796 12.1933C121.395 11.904 120.914 11.7593 120.354 11.7593C119.878 11.7593 119.495 11.8666 119.206 12.0813C118.917 12.296 118.772 12.5666 118.772 12.8933C118.772 13.388 119.117 13.7426 119.808 13.9573L121.88 14.6013C122.757 14.872 123.415 15.2453 123.854 15.7213C124.293 16.1973 124.512 16.7946 124.512 17.5133C124.512 18.1386 124.349 18.6846 124.022 19.1513C123.705 19.618 123.257 19.982 122.678 20.2433C122.099 20.5046 121.423 20.6353 120.648 20.6353Z" fill="white"/>
<path d="M31.2361 0.984863H7.71887C3.7521 0.984863 0.588135 4.19606 0.588135 8.1156V20.8187C0.588135 24.7855 3.79933 27.9494 7.71887 27.9494H31.2361C35.2029 27.9494 38.3669 24.7382 38.3669 20.8187V8.1156C38.3669 4.19606 35.1557 0.984863 31.2361 0.984863ZM14.519 20.2992V8.68228L24.436 14.4908L14.519 20.2992Z" fill="white"/>
</svg>
