<svg width="284" height="131" viewBox="0 0 284 131" fill="none" xmlns="http://www.w3.org/2000/svg">
<path d="M125.904 49.9399H99.5756C98.1815 49.9399 97.0474 51.1075 97.0474 52.5425V79.6451C97.0474 81.0801 98.1815 82.2476 99.5756 82.2476H125.904C127.298 82.2476 128.432 81.0801 128.432 79.645V52.5425C128.432 51.1075 127.298 49.9399 125.904 49.9399V49.9399ZM127.124 52.5425V65.4207H113.394V51.2861H125.904C126.577 51.2861 127.124 51.8497 127.124 52.5425ZM99.5756 51.2861H112.086V65.4207H98.3551V52.5425C98.3551 51.8497 98.9026 51.2861 99.5756 51.2861ZM98.3551 79.645V66.7669H112.086V80.9015H99.5756C98.9026 80.9015 98.3551 80.3378 98.3551 79.645V79.645ZM125.904 80.9015H113.394V66.7669H127.124V79.645C127.124 80.3378 126.577 80.9015 125.904 80.9015Z" fill="white"/>
<path d="M101.624 59.3631H104.894V62.7285C104.894 63.1003 105.186 63.4016 105.547 63.4016C105.909 63.4016 106.201 63.1003 106.201 62.7285V59.3631H109.47C109.832 59.3631 110.124 59.0618 110.124 58.6901C110.124 58.3183 109.832 58.017 109.47 58.017H106.201V54.6516C106.201 54.2799 105.909 53.9785 105.547 53.9785C105.186 53.9785 104.894 54.2799 104.894 54.6516V58.017H101.624C101.263 58.017 100.97 58.3183 100.97 58.6901C100.97 59.0618 101.263 59.3631 101.624 59.3631Z" fill="white"/>
<path d="M106.472 73.4974L108.784 71.1178C109.039 70.8549 109.039 70.4287 108.784 70.1658C108.528 69.9031 108.114 69.9031 107.859 70.1658L105.547 72.5455L103.236 70.1658C102.98 69.9031 102.566 69.9031 102.311 70.1658C102.056 70.4287 102.056 70.8549 102.311 71.1178L104.623 73.4974L102.311 75.8771C102.056 76.1399 102.056 76.5661 102.311 76.829C102.566 77.0919 102.98 77.0918 103.236 76.829L105.547 74.4494L107.859 76.829C108.114 77.0918 108.528 77.0919 108.784 76.829C109.039 76.5662 109.039 76.14 108.784 75.8771L106.472 73.4974Z" fill="white"/>
<path d="M116.009 59.363H123.855C124.216 59.363 124.509 59.0617 124.509 58.6899C124.509 58.3182 124.216 58.0168 123.855 58.0168H116.009C115.648 58.0168 115.355 58.3182 115.355 58.6899C115.355 59.0617 115.648 59.363 116.009 59.363Z" fill="white"/>
<path d="M123.855 72.8245H116.009C115.648 72.8245 115.355 73.1259 115.355 73.4975C115.355 73.8692 115.648 74.1706 116.009 74.1706H123.855C124.216 74.1706 124.509 73.8692 124.509 73.4975C124.509 73.1259 124.216 72.8245 123.855 72.8245Z" fill="white"/>
<path d="M119.932 71.4785C120.293 71.4785 120.586 71.1771 120.586 70.8054C120.586 70.4337 120.293 70.1323 119.932 70.1323C119.571 70.1323 119.278 70.4337 119.278 70.8054C119.278 71.1771 119.571 71.4785 119.932 71.4785Z" fill="white"/>
<path d="M119.932 76.863C120.293 76.863 120.586 76.5616 120.586 76.1899C120.586 75.8182 120.293 75.5168 119.932 75.5168C119.571 75.5168 119.278 75.8182 119.278 76.1899C119.278 76.5616 119.571 76.863 119.932 76.863Z" fill="white"/>
<g clip-path="url(#clip0)">
<path d="M188.74 62.2927C188.739 62.0897 188.631 61.9022 188.455 61.8011L185.57 60.144L188.456 58.478C188.632 58.3763 188.74 58.1886 188.74 57.9856C188.739 57.7826 188.631 57.5952 188.455 57.4942C183.536 54.6706 178.618 51.8458 173.7 49.0203C173.525 48.9194 173.309 48.9197 173.134 49.0209L147.024 64.0958C146.848 64.1972 146.74 64.385 146.74 64.5878C146.741 64.7908 146.849 64.9782 147.025 65.0794C147.987 65.632 148.948 66.1839 149.91 66.7364L147.023 68.4028C146.848 68.5041 146.739 68.6919 146.74 68.8948C146.74 69.0978 146.849 69.2853 147.025 69.3864L149.91 71.0434L147.023 72.7096C146.848 72.8112 146.739 72.9989 146.74 73.2018C146.74 73.4048 146.849 73.5923 147.025 73.6934L161.779 82.1672C161.867 82.2175 161.964 82.2426 162.062 82.2426C162.16 82.2426 162.258 82.2172 162.346 82.1665L188.456 67.0917C188.632 66.9903 188.74 66.8026 188.74 66.5995C188.739 66.3967 188.631 66.2092 188.455 66.1081L185.57 64.4512L188.456 62.7848C188.632 62.6833 188.74 62.4956 188.74 62.2927V62.2927ZM173.418 50.1675C177.957 52.7749 182.495 55.3816 187.034 57.9876L177.207 63.66C176.894 63.483 176.321 63.1551 175.575 62.7274L181.162 59.5037C181.296 59.4261 181.393 59.2971 181.429 59.1465C181.466 58.9962 181.44 58.837 181.356 58.7064C181.236 58.5183 181.06 58.1442 181.23 57.7523C181.346 57.4872 181.243 57.1777 180.992 57.0338L174.952 53.5624C174.806 53.4785 174.63 53.4637 174.471 53.5229C173.695 53.8126 172.636 53.7667 171.774 53.4066C171.612 53.339 171.425 53.3501 171.272 53.4389L165.36 56.8528C165.142 56.7275 164.933 56.6072 164.74 56.4963L163.596 55.8374L173.418 50.1675ZM180.141 58.7821L174.436 62.074C172.111 60.7392 168.909 58.8962 166.497 57.5075L171.606 54.5571C172.583 54.8987 173.688 54.9416 174.607 54.6731L180.047 57.7996C179.999 58.1226 180.031 58.457 180.141 58.7821ZM158.262 58.9165C158.81 59.2315 159.358 59.5462 159.907 59.8612L154.329 63.0831C154.195 63.1606 154.099 63.2895 154.062 63.44C154.025 63.5906 154.052 63.7495 154.135 63.8801C154.255 64.0682 154.431 64.4424 154.261 64.8338C154.146 65.099 154.249 65.4085 154.499 65.5523L160.537 69.0183C160.683 69.1024 160.86 69.117 161.018 69.0579C161.794 68.7684 162.853 68.8138 163.716 69.1735C163.786 69.2029 163.86 69.2173 163.934 69.2173C164.032 69.2173 164.131 69.1918 164.218 69.1412L165.148 68.6039C166.808 67.6454 168.468 66.687 170.128 65.7295L171.88 66.7352L162.061 72.4059C157.522 69.8002 152.982 67.1935 148.445 64.5859L158.262 58.9165ZM155.35 63.8043L161.045 60.5146C163.447 61.894 165.848 63.2733 168.25 64.6521L168.989 65.0762C167.519 65.9241 166.05 66.7724 164.581 67.6209L163.884 68.0233C162.906 67.6817 161.802 67.6397 160.883 67.9078L155.445 64.7865C155.493 64.4636 155.461 64.1292 155.35 63.8043V63.8043ZM151.048 67.3899C154.625 69.4447 158.202 71.4994 161.779 73.553C161.867 73.6033 161.964 73.6284 162.062 73.6284C162.16 73.6284 162.258 73.603 162.346 73.5523L172.451 67.7159L172.458 70.7105L162.061 76.713L148.445 68.8929L151.048 67.3899ZM162.061 81.0201L148.445 73.1999L151.048 71.6972L161.779 77.8602C161.867 77.9105 161.964 77.9356 162.062 77.9356C162.16 77.9356 162.258 77.9103 162.346 77.8595L172.461 72.0192L172.469 75.0115L162.061 81.0201ZM173.602 74.3571L173.584 66.732C173.584 66.5292 173.475 66.342 173.299 66.2412C173.299 66.2412 162.537 60.0635 159.398 58.2603L162.46 56.4932C162.46 56.4932 175.7 64.1165 176.646 64.632L176.662 72.5905L173.602 74.3571ZM187.035 66.6016L177.795 71.9362L177.789 68.9431L184.433 65.1075L187.035 66.6016ZM177.787 67.634L177.781 64.6397L184.433 60.8001L187.035 62.2945L177.787 67.634ZM160.411 65.6847C160.254 65.4132 160.347 65.0661 160.618 64.9095L163.105 63.4737C163.376 63.3167 163.723 63.4096 163.88 63.6815C164.037 63.9529 163.944 64.3 163.672 64.4566L161.186 65.8924C161.096 65.9441 160.999 65.9685 160.902 65.9685C160.706 65.9684 160.515 65.8668 160.411 65.6847V65.6847ZM175.397 57.0314C175.553 57.3029 175.461 57.65 175.189 57.8066L173.002 59.0692C172.913 59.121 172.815 59.1454 172.719 59.1454C172.523 59.1454 172.332 59.0437 172.227 58.8616C172.07 58.5902 172.163 58.243 172.435 58.0864L174.622 56.8238C174.893 56.667 175.24 56.7595 175.397 57.0314Z" fill="white"/>
</g>
<defs>
<clipPath id="clip0">
<rect width="42" height="42" fill="white" transform="translate(146.74 44.5938)"/>
</clipPath>
</defs>
</svg>
