<svg width="284" height="131" viewBox="0 0 284 131" fill="none" xmlns="http://www.w3.org/2000/svg">
<rect x="77.1345" y="41.0164" width="64.6741" height="49.3886" fill="white" fill-opacity="0.1"/>
<path d="M119.362 69.7518C119.28 69.6839 119.176 69.6468 119.07 69.6468C118.963 69.6468 118.859 69.6839 118.777 69.7518C117.409 70.6211 115.818 71.0747 114.198 71.0574C112.505 71.0436 110.855 70.5297 109.453 69.5804C108.052 68.631 106.963 67.2886 106.323 65.7218C105.683 64.1551 105.52 62.434 105.855 60.7751C106.19 59.1161 107.009 57.5933 108.207 56.3982C108.283 56.3247 108.331 56.2279 108.345 56.1235C108.359 56.019 108.338 55.9129 108.284 55.8222C108.231 55.7317 108.149 55.6611 108.052 55.6212C107.955 55.5813 107.848 55.5744 107.746 55.6014C105.378 56.284 103.333 57.7948 101.986 59.8585C100.638 61.9222 100.076 64.4014 100.403 66.8445C100.73 69.2876 101.924 71.532 103.767 73.1687C105.61 74.8054 107.979 75.7255 110.444 75.7614C112.303 75.7633 114.126 75.2561 115.717 74.2949C117.308 73.3336 118.605 71.955 119.468 70.3086C119.513 70.2169 119.527 70.113 119.508 70.0125C119.489 69.912 119.438 69.8205 119.362 69.7518Z" fill="white"/>
<g clip-path="url(#clip0)">
<path d="M184.112 61.0752V56.109H179.146L175.623 52.6045L172.101 56.109H167.135V61.0752L163.623 64.5867L167.135 68.0982V73.0644H172.101L175.623 76.5829L179.146 73.0644H184.112V68.0982L187.623 64.5867L184.112 61.0752ZM175.623 72.0509C171.511 72.0509 168.166 68.7057 168.166 64.5937C168.166 60.4818 171.511 57.1365 175.623 57.1365C179.735 57.1365 183.08 60.4818 183.08 64.5937C183.08 68.7057 179.735 72.0509 175.623 72.0509Z" fill="white"/>
<path d="M175.623 70.6459C178.966 70.6459 181.675 67.9363 181.675 64.5937C181.675 61.2512 178.966 58.5415 175.623 58.5415C172.281 58.5415 169.571 61.2512 169.571 64.5937C169.571 67.9363 172.281 70.6459 175.623 70.6459Z" fill="white"/>
</g>
<rect x="77.1233" y="41.2825" width="129.254" height="48.6224" stroke="white"/>
<line x1="142.309" y1="41.2363" x2="142.309" y2="90.4047" stroke="white"/>
<rect x="0.5" y="1.07568" width="282.501" height="129.036" stroke="#141414"/>
<defs>
<clipPath id="clip0">
<rect width="24" height="24" fill="white" transform="translate(163.623 52.5938)"/>
</clipPath>
</defs>
</svg>
