<svg width="38" height="41" viewBox="0 0 38 41" fill="none" xmlns="http://www.w3.org/2000/svg">
<path d="M34.2584 7.92545L22.3824 1.0764C20.377 -0.0801932 17.8851 -0.0801143 15.8796 1.0764L4.00369 7.92545C1.9943 9.08417 0.746094 11.2451 0.746094 13.565V27.2524C0.746094 29.5722 1.99429 31.7332 4.00361 32.8919L15.8796 39.741C17.8854 40.8978 20.3772 40.8974 22.3824 39.741L34.2583 32.8919C36.2677 31.7332 37.5159 29.5722 37.5159 27.2524V13.565C37.5159 11.2452 36.2677 9.08425 34.2584 7.92545ZM34.3597 27.2524C34.3597 28.4473 33.7168 29.5605 32.6817 30.1573L20.8058 37.0063C19.7727 37.6022 18.4893 37.6022 17.4562 37.0063L5.58022 30.1573C4.54522 29.5604 3.9023 28.4473 3.9023 27.2524V13.565C3.9023 12.3701 4.54522 11.257 5.5803 10.6601L17.4562 3.81109C18.4893 3.2152 19.7731 3.21544 20.8058 3.81109L32.6818 10.6601C33.7168 11.257 34.3597 12.37 34.3597 13.565V27.2524Z" fill="white"/>
<path d="M17.6313 19.2038L11.7701 14.2436C11.1049 13.6806 10.109 13.7635 9.54604 14.429C8.98305 15.0945 9.06606 16.0903 9.73139 16.6534L14.1689 20.4088L9.73139 24.1641C9.06606 24.7272 8.98313 25.7231 9.54604 26.3885C10.1104 27.0555 11.1065 27.1355 11.7701 26.5738L17.6313 21.6136C18.3769 20.9826 18.3748 19.8331 17.6313 19.2038Z" fill="white"/>
<path d="M27.5112 23.7903H20.4101C19.5385 23.7903 18.832 24.4969 18.832 25.3686C18.832 26.2404 19.5385 26.947 20.4101 26.947H27.5112C28.3827 26.947 29.0893 26.2404 29.0893 25.3686C29.0893 24.4969 28.3828 23.7903 27.5112 23.7903Z" fill="white"/>
</svg>
