<svg width="284" height="131" viewBox="0 0 284 131" fill="none" xmlns="http://www.w3.org/2000/svg">
<rect x="0.5" y="1.07568" width="282.501" height="129.036" stroke="#141414"/>
<circle cx="71.8331" cy="62.2091" r="19.4586" stroke="white"/>
<path d="M70.7494 69.209V58.157H68.2294V55.817L73.5394 55.799V69.209H70.7494Z" fill="white"/>
<circle cx="141.751" cy="62.2091" r="19.4586" fill="white" fill-opacity="0.14" stroke="white"/>
<path d="M137.568 69.209L137.55 67.049L141.15 63.341C141.858 62.609 142.392 62.033 142.752 61.613C143.124 61.181 143.376 60.821 143.508 60.533C143.652 60.245 143.724 59.963 143.724 59.687C143.724 59.195 143.574 58.811 143.274 58.535C142.974 58.247 142.566 58.103 142.05 58.103C141.534 58.103 141.072 58.253 140.664 58.553C140.268 58.841 139.98 59.249 139.8 59.777L137.604 58.517C137.916 57.617 138.486 56.903 139.314 56.375C140.142 55.847 141.114 55.583 142.23 55.583C143.082 55.583 143.826 55.739 144.462 56.051C145.11 56.363 145.614 56.801 145.974 57.365C146.334 57.929 146.514 58.589 146.514 59.345C146.514 60.077 146.316 60.779 145.92 61.451C145.524 62.111 144.924 62.849 144.12 63.665L141.006 66.869H146.676V69.209H137.568Z" fill="white"/>
<circle cx="211.668" cy="62.2091" r="19.4586" stroke="white"/>
<path d="M211.846 69.425C210.778 69.425 209.83 69.161 209.002 68.633C208.186 68.105 207.61 67.391 207.274 66.491L209.47 65.231C209.878 66.347 210.67 66.905 211.846 66.905C212.506 66.905 213.028 66.725 213.412 66.365C213.808 65.993 214.006 65.495 214.006 64.871C214.006 64.259 213.814 63.779 213.43 63.431C213.046 63.071 212.518 62.891 211.846 62.891C211.294 62.891 210.79 63.005 210.334 63.233L209.686 61.883L213.142 58.139H207.886V55.799H216.256V57.959L213.628 60.911C214.6 61.079 215.368 61.505 215.932 62.189C216.508 62.873 216.796 63.731 216.796 64.763C216.796 65.651 216.58 66.449 216.148 67.157C215.716 67.865 215.128 68.423 214.384 68.831C213.64 69.227 212.794 69.425 211.846 69.425Z" fill="white"/>
</svg>
