<svg width="315" height="62" viewBox="0 0 315 62" fill="none" xmlns="http://www.w3.org/2000/svg">
<path d="M58.4449 22.5623H48.9692C48.0216 22.5623 47.3899 23.1178 47.3899 23.9114V24.2289C47.3899 26.2129 52.2067 26.6097 50.5485 31.4507L44.4682 49.0687L37.2825 24.2289C36.9666 23.2765 36.4928 22.8004 35.4663 22.8004L31.1233 22.8797C30.0967 22.8797 29.623 23.4352 29.3071 24.3876L21.9634 49.0687L15.6463 30.419C14.3039 26.4509 18.0152 26.1335 18.0152 24.2289V23.9114C18.0152 23.1178 17.4625 22.5623 16.5149 22.5623H2.45932C1.51175 22.5623 0.880035 23.0384 0.880035 23.8321V24.2289C0.880035 26.1335 3.32792 26.9271 4.67031 30.2603L16.1991 58.7507C16.6728 60.0998 17.3835 60.6554 18.7259 60.6554H20.5421C21.8845 60.6554 22.6741 60.0998 23.1479 58.7507L30.4916 35.26L37.7563 58.7507C38.1511 60.0998 38.9407 60.6554 40.3621 60.6554H42.9679C44.3103 60.6554 45.021 60.0998 45.4948 58.7507L55.6811 30.2603C56.9445 26.689 60.0242 26.2129 60.0242 24.2289V23.8321C60.0242 23.0384 59.4714 22.5623 58.4449 22.5623ZM90.5506 48.5926C89.0503 51.0527 85.7338 53.1955 81.5487 53.1955C76.8109 53.1955 73.1785 50.6559 71.1254 46.2911L88.6555 38.2757C90.7875 37.3234 92.1299 35.7361 92.1299 33.0379C92.1299 27.8001 87.55 21.7687 77.2057 21.7687C66.8613 21.7687 58.0963 29.7841 58.0963 41.2914C58.0963 53.5129 66.2296 61.449 77.2057 61.449C87.3921 61.449 92.7616 54.0684 93.2354 49.4655C93.3144 47.7989 91.4982 47.4021 90.5506 48.5926ZM75.7844 25.2605C80.0484 25.2605 82.1015 30.8951 82.1015 33.7521C82.1015 35.4187 81.4698 36.7678 80.0484 37.4821L69.862 42.6405C69.3092 40.5771 69.0723 38.2757 69.0723 35.8155C69.0723 29.7841 71.5992 25.2605 75.7844 25.2605ZM118.441 21.7687C114.651 21.7687 111.414 22.8797 109.203 24.9431V2.7221C109.203 0.738076 107.702 0.261913 105.886 1.13488L95.6997 5.89655C94.2784 6.53144 93.8835 6.92824 93.8835 7.80121V8.03929C93.8835 10.0233 97.5159 10.4995 97.5159 14.0707V52.9574C97.5159 56.3699 94.4363 57.1635 94.4363 59.0682V59.3062C94.4363 60.1792 95.068 60.6554 96.0945 60.6554L106.281 60.7347C107.465 60.7347 108.097 60.2586 108.097 58.9888V57.2429C110.624 59.9411 114.019 61.449 118.441 61.449C128.312 61.449 136.84 53.1955 136.84 40.9739C136.84 28.5143 127.601 21.7687 118.441 21.7687ZM117.257 58.0365C113.151 58.0365 109.203 52.9574 109.203 47.5609V33.1966C109.203 28.435 111.966 25.1812 115.599 25.1812C121.916 25.1812 125.311 35.7361 125.311 45.7356C125.311 53.6716 122.39 58.0365 117.257 58.0365ZM140.385 60.6554H154.915C155.941 60.6554 156.731 60.0998 156.731 59.3062V58.9888C156.731 57.0048 153.335 56.3699 153.335 53.0368V2.56337C153.335 1.21425 152.151 0.103199 150.098 1.13488L140.148 6.05527C139.201 6.45208 138.569 6.84888 138.569 7.64249V7.95993C138.569 9.6265 141.649 10.4201 141.649 13.9913V53.0368C141.649 56.3699 138.569 57.0048 138.569 58.9888V59.3062C138.569 60.0998 139.28 60.6554 140.385 60.6554ZM179.889 61.449C191.418 61.449 199.946 53.0368 199.946 41.7675C199.946 30.4983 190.865 21.7687 178.704 21.7687C167.649 21.7687 158.253 29.8635 158.253 41.3707C158.253 52.4019 167.176 61.449 179.889 61.449ZM181.31 57.9571C174.124 57.9571 169.86 44.942 169.86 36.8472C169.86 29.3079 172.387 25.2605 177.125 25.2605C183.837 25.2605 188.101 37.7995 188.101 46.4498C188.101 53.751 185.574 57.9571 181.31 57.9571ZM221.746 61.449C232.011 61.449 237.381 55.0208 237.855 48.5132C238.012 46.7673 236.038 46.4498 235.091 47.7196C233.433 50.5766 230.432 53.2748 225.615 53.2748C217.561 53.2748 212.191 46.3705 212.191 35.8155C212.191 29.9428 215.034 25.2605 219.535 25.2605C226.405 25.1812 225.931 36.4504 232.722 36.8472C236.354 37.0059 237.618 34.9425 237.618 32.8792C237.618 26.689 230.353 21.6893 221.272 21.7687C210.612 21.848 201.373 29.3079 201.373 41.5295C201.373 52.2431 209.822 61.449 221.746 61.449ZM279.221 54.7033L265.876 35.9742L272.272 30.0222C275.193 27.4033 279.063 26.1335 279.063 24.1495V23.8321C279.063 23.0384 278.431 22.5623 277.483 22.5623H266.191C265.244 22.5623 264.612 23.0384 264.612 23.9114V24.2289C264.612 26.1335 268.797 28.1175 266.507 30.1015L254.031 40.9739V2.56337C254.031 1.21425 252.768 0.18256 250.872 1.13488L240.37 6.05527C239.344 6.45208 238.791 6.84888 238.791 7.64249V7.95993C238.791 9.6265 242.344 10.4201 242.344 13.9913V53.0368C242.344 56.3699 239.344 57.0048 239.344 58.9888V59.3062C239.344 60.0998 239.975 60.6554 241.081 60.6554H255.61C256.716 60.6554 257.426 60.0998 257.426 59.3062V58.9888C257.426 57.0048 254.031 56.3699 254.031 53.0368V47.0053L258.69 42.6405L267.218 54.7033C268.56 56.608 265.639 57.0841 265.639 59.0682V59.2269C265.639 60.0998 266.27 60.6554 267.218 60.6554H281.905C282.853 60.6554 283.485 60.1792 283.485 59.3062V59.0682C283.485 57.1635 280.563 56.5286 279.221 54.7033ZM298.059 61.3696C308.641 61.3696 314.958 56.4493 314.958 50.021C314.958 34.8632 293.401 41.212 293.401 30.3396C293.401 27.4826 295.375 25.0225 298.533 25.0225C305.403 25.0225 303.113 35.4187 309.667 35.4187C312.194 35.4187 314.168 33.5934 314.168 31.2919C314.168 26.3716 307.851 21.7687 297.902 21.7687C288.426 21.7687 281.872 26.689 281.872 33.4347C281.872 49.0687 303.824 42.4818 303.824 53.0368C303.824 56.608 301.297 58.2746 298.059 58.2746C290.163 58.2746 292.848 47.799 285.899 47.799C283.214 47.799 281.161 49.1481 281.161 52.1638C281.161 57.0841 287.873 61.3696 298.059 61.3696Z" fill="white"/>
</svg>
