<svg width="142" height="36" viewBox="0 0 142 36" fill="none" xmlns="http://www.w3.org/2000/svg">
<path d="M26.636 12.3679H22.316C21.884 12.3679 21.596 12.6199 21.596 12.9799V13.1239C21.596 14.0239 23.792 14.2039 23.036 16.3999L20.264 24.3919L16.988 13.1239C16.844 12.6919 16.628 12.4759 16.16 12.4759L14.18 12.5119C13.712 12.5119 13.496 12.7639 13.352 13.1959L10.004 24.3919L7.124 15.9319C6.512 14.1319 8.204 13.9879 8.204 13.1239V12.9799C8.204 12.6199 7.952 12.3679 7.52 12.3679H1.112C0.68 12.3679 0.392 12.5839 0.392 12.9439V13.1239C0.392 13.9879 1.508 14.3479 2.12 15.8599L7.376 28.7839C7.592 29.3959 7.916 29.6479 8.528 29.6479H9.356C9.968 29.6479 10.328 29.3959 10.544 28.7839L13.892 18.1279L17.204 28.7839C17.384 29.3959 17.744 29.6479 18.392 29.6479H19.58C20.192 29.6479 20.516 29.3959 20.732 28.7839L25.376 15.8599C25.952 14.2399 27.356 14.0239 27.356 13.1239V12.9439C27.356 12.5839 27.104 12.3679 26.636 12.3679ZM41.2731 24.1759C40.5891 25.2919 39.0771 26.2639 37.1691 26.2639C35.0091 26.2639 33.3531 25.1119 32.4171 23.1319L40.4091 19.4959C41.3811 19.0639 41.9931 18.3439 41.9931 17.1199C41.9931 14.7439 39.9051 12.0079 35.1891 12.0079C30.4731 12.0079 26.4771 15.6439 26.4771 20.8639C26.4771 26.4079 30.1851 30.0079 35.1891 30.0079C39.8331 30.0079 42.2811 26.6599 42.4971 24.5719C42.5331 23.8159 41.7051 23.6359 41.2731 24.1759ZM34.5411 13.5919C36.4851 13.5919 37.4211 16.1479 37.4211 17.4439C37.4211 18.1999 37.1331 18.8119 36.4851 19.1359L31.8411 21.4759C31.5891 20.5399 31.4811 19.4959 31.4811 18.3799C31.4811 15.6439 32.6331 13.5919 34.5411 13.5919Z" fill="#D1FF6E"/>
<path d="M55.017 31.0439C53.807 31.0439 52.685 30.8349 51.651 30.4169C50.639 29.9769 49.803 29.3609 49.143 28.5689V30.6479H45.414V6.06295H49.374V14.8409C49.99 14.0929 50.782 13.5099 51.75 13.0919C52.74 12.6739 53.84 12.4649 55.05 12.4649C56.722 12.4649 58.229 12.8719 59.571 13.6859C60.935 14.4999 62.013 15.6109 62.805 17.0189C63.619 18.4269 64.026 20.0109 64.026 21.7709C64.026 23.5089 63.63 25.0819 62.838 26.4899C62.046 27.8979 60.968 29.0089 59.604 29.8229C58.24 30.6369 56.711 31.0439 55.017 31.0439ZM54.621 27.3809C55.633 27.3809 56.535 27.1389 57.327 26.6549C58.119 26.1709 58.746 25.5109 59.208 24.6749C59.67 23.8169 59.901 22.8489 59.901 21.7709C59.901 20.6929 59.67 19.7249 59.208 18.8669C58.746 18.0089 58.119 17.3379 57.327 16.8539C56.535 16.3699 55.633 16.1279 54.621 16.1279C53.587 16.1279 52.674 16.3699 51.882 16.8539C51.112 17.3379 50.496 18.0089 50.034 18.8669C49.594 19.7029 49.374 20.6709 49.374 21.7709C49.374 22.8709 49.594 23.8499 50.034 24.7079C50.496 25.5439 51.112 26.2039 51.882 26.6879C52.674 27.1499 53.587 27.3809 54.621 27.3809ZM65.8547 30.6479V6.06295H69.8147V30.6479H65.8547ZM80.9803 31.0439C79.2423 31.0439 77.6583 30.6479 76.2283 29.8559C74.8203 29.0419 73.6983 27.9419 72.8623 26.5559C72.0483 25.1479 71.6413 23.5419 71.6413 21.7379C71.6413 19.9559 72.0483 18.3719 72.8623 16.9859C73.6983 15.5779 74.8203 14.4779 76.2283 13.6859C77.6363 12.8719 79.2203 12.4649 80.9803 12.4649C82.7183 12.4649 84.2913 12.8719 85.6993 13.6859C87.1073 14.4779 88.2293 15.5779 89.0653 16.9859C89.9013 18.3719 90.3193 19.9559 90.3193 21.7379C90.3193 23.5419 89.9013 25.1479 89.0653 26.5559C88.2293 27.9419 87.0963 29.0419 85.6663 29.8559C84.2583 30.6479 82.6963 31.0439 80.9803 31.0439ZM80.9803 27.3809C81.9703 27.3809 82.8613 27.1389 83.6533 26.6549C84.4453 26.1709 85.0613 25.5109 85.5013 24.6749C85.9633 23.8169 86.1943 22.8489 86.1943 21.7709C86.1943 20.6929 85.9633 19.7249 85.5013 18.8669C85.0613 18.0089 84.4453 17.3379 83.6533 16.8539C82.8613 16.3699 81.9703 16.1279 80.9803 16.1279C79.9683 16.1279 79.0663 16.3699 78.2743 16.8539C77.4823 17.3379 76.8663 18.0089 76.4263 18.8669C75.9863 19.7249 75.7663 20.6929 75.7663 21.7709C75.7663 22.8489 75.9863 23.8169 76.4263 24.6749C76.8663 25.5109 77.4823 26.1709 78.2743 26.6549C79.0663 27.1389 79.9683 27.3809 80.9803 27.3809ZM100.288 31.0439C98.5504 31.0439 96.9884 30.6369 95.6024 29.8229C94.2164 29.0089 93.1274 27.8979 92.3354 26.4899C91.5434 25.0819 91.1474 23.4979 91.1474 21.7379C91.1474 19.9559 91.5434 18.3719 92.3354 16.9859C93.1274 15.5999 94.2164 14.4999 95.6024 13.6859C96.9884 12.8719 98.5504 12.4649 100.288 12.4649C101.542 12.4649 102.697 12.6849 103.753 13.1249C104.831 13.5649 105.755 14.1699 106.525 14.9399C107.317 15.7099 107.889 16.5899 108.241 17.5799L104.809 19.2959C104.457 18.3279 103.885 17.5579 103.093 16.9859C102.301 16.4139 101.366 16.1279 100.288 16.1279C99.3204 16.1279 98.4514 16.3699 97.6814 16.8539C96.9334 17.3379 96.3394 18.0089 95.8994 18.8669C95.4814 19.7029 95.2724 20.6709 95.2724 21.7709C95.2724 22.8489 95.4814 23.8169 95.8994 24.6749C96.3394 25.5109 96.9334 26.1709 97.6814 26.6549C98.4514 27.1389 99.3204 27.3809 100.288 27.3809C101.366 27.3809 102.301 27.0949 103.093 26.5229C103.885 25.9509 104.457 25.1809 104.809 24.2129L108.241 25.9619C107.889 26.9299 107.328 27.7989 106.558 28.5689C105.788 29.3389 104.864 29.9439 103.786 30.3839C102.708 30.8239 101.542 31.0439 100.288 31.0439ZM109.774 30.6479V6.06295H113.734V20.5499L120.928 12.8609H125.581L119.08 20.0219L125.581 30.6479H121.192L116.506 22.8599L113.734 25.8629V30.6479H109.774ZM133.176 31.0439C131.328 31.0439 129.689 30.6039 128.259 29.7239C126.851 28.8439 125.872 27.6229 125.322 26.0609L128.391 24.5759C128.853 25.6319 129.502 26.4349 130.338 26.9849C131.174 27.5349 132.12 27.8099 133.176 27.8099C134.056 27.8099 134.76 27.6229 135.288 27.2489C135.838 26.8749 136.113 26.3799 136.113 25.7639C136.113 25.1699 135.86 24.7189 135.354 24.4109C134.848 24.1029 134.32 23.8719 133.77 23.7179L130.734 22.9259C129.172 22.5079 128.006 21.8589 127.236 20.9789C126.466 20.0989 126.081 19.0539 126.081 17.8439C126.081 16.2379 126.686 14.9399 127.896 13.9499C129.106 12.9599 130.701 12.4649 132.681 12.4649C134.419 12.4649 135.937 12.8829 137.235 13.7189C138.555 14.5329 139.49 15.6439 140.04 17.0519L136.938 18.5039C136.608 17.6459 136.069 16.9859 135.321 16.5239C134.573 16.0399 133.693 15.7979 132.681 15.7979C131.845 15.7979 131.185 15.9739 130.701 16.3259C130.239 16.6559 130.008 17.1069 130.008 17.6789C130.008 18.2509 130.228 18.6909 130.668 18.9989C131.13 19.2849 131.625 19.5049 132.153 19.6589L135.321 20.5499C136.861 20.9899 138.027 21.6499 138.819 22.5299C139.633 23.3879 140.04 24.4329 140.04 25.6649C140.04 26.7209 139.743 27.6559 139.149 28.4699C138.577 29.2839 137.774 29.9219 136.74 30.3839C135.706 30.8239 134.518 31.0439 133.176 31.0439Z" fill="white"/>
</svg>
